Alegreya-Black.ufo
<glyph name="dcaron" format="2">
  <advance width="663"/>
  <unicode hex="010F"/>
  <anchor x="264" y="0" name="bottom"/>
  <anchor x="376" y="236" name="center"/>
  <anchor x="390" y="730" name="top"/>
  <outline>
    <contour>
      <point x="558" y="435" type="line"/>
      <point x="631" y="460" type="line"/>
      <point x="657" y="572"/>
      <point x="673" y="681"/>
      <point x="673" y="681" type="curve"/>
      <point x="664" y="693" type="line"/>
      <point x="530" y="679" type="line"/>
      <point x="530" y="679"/>
      <point x="541" y="561"/>
      <point x="539" y="441" type="curve"/>
    </contour>
    <component base="d"/>
  </outline>
</glyph>
<glyph name="dcroat" format="2">
  <advance width="536"/>
  <unicode hex="0111"/>
  <anchor x="264" y="0" name="bottom"/>
  <anchor x="376" y="236" name="center"/>
  <anchor x="390" y="730" name="top"/>
  <outline>
    <contour>
      <point x="205" y="508" type="line"/>
      <point x="375" y="509" type="line"/>
      <point x="552" y="510" type="line"/>
      <point x="557" y="565" type="line"/>
      <point x="542" y="580" type="line"/>
      <point x="401" y="575" type="line"/>
      <point x="202" y="576" type="line"/>
      <point x="194" y="518" type="line"/>
    </contour>
    <component base="d"/>
  </outline>
</glyph>
<glyph name="Hbar" format="2">
  <advance width="739"/>
  <unicode hex="0126"/>
  <anchor x="378" y="0" name="bottom"/>
  <anchor x="654" y="172" name="bottomright"/>
  <anchor x="370" y="324" name="center"/>
  <anchor x="373" y="647" name="top"/>
  <anchor x="20" y="647" name="topleft"/>
  <outline>
    <contour>
      <point x="6" y="436" type="line"/>
      <point x="6" y="436"/>
      <point x="210" y="437"/>
      <point x="376" y="437" type="curve" smooth="yes"/>
      <point x="743" y="438" type="line"/>
      <point x="748" y="493" type="line"/>
      <point x="733" y="508" type="line"/>
      <point x="733" y="508"/>
      <point x="543" y="503"/>
      <point x="402" y="503" type="curve" smooth="yes"/>
      <point x="237" y="503"/>
      <point x="3" y="504"/>
      <point x="3" y="504" type="curve"/>
      <point x="-5" y="446" type="line"/>
    </contour>
    <component base="H"/>
  </outline>
</glyph>
<glyph name="Lcaron" format="2">
  <advance width="570"/>
  <unicode hex="013D"/>
  <anchor x="287" y="0" name="bottom"/>
  <anchor x="190" y="647" name="top"/>
  <outline>
    <contour>
      <point x="459" y="389" type="line"/>
      <point x="532" y="414" type="line"/>
      <point x="558" y="526"/>
      <point x="574" y="635"/>
      <point x="574" y="635" type="curve"/>
      <point x="565" y="647" type="line"/>
      <point x="431" y="633" type="line"/>
      <point x="431" y="633"/>
      <point x="442" y="515"/>
      <point x="440" y="395" type="curve"/>
    </contour>
    <component base="L"/>
  </outline>
</glyph>
<glyph name="lcaron" format="2">
  <advance width="418"/>
  <unicode hex="013E"/>
  <anchor x="140" y="0" name="bottom"/>
  <anchor x="146" y="720" name="top"/>
  <anchor x="267" y="472" name="topright"/>
  <outline>
    <contour>
      <point x="313" y="427" type="line"/>
      <point x="386" y="452" type="line"/>
      <point x="412" y="564"/>
      <point x="428" y="673"/>
      <point x="428" y="673" type="curve"/>
      <point x="419" y="685" type="line"/>
      <point x="285" y="671" type="line"/>
      <point x="285" y="671"/>
      <point x="296" y="553"/>
      <point x="294" y="433" type="curve"/>
    </contour>
    <component base="l"/>
  </outline>
</glyph>
<glyph name="lslash" format="2">
  <advance width="346"/>
  <unicode hex="0142"/>
  <anchor x="170" y="0" name="bottom"/>
  <anchor x="176" y="720" name="top"/>
  <anchor x="297" y="472" name="topright"/>
  <outline>
    <contour>
      <point x="35" y="242" type="line"/>
      <point x="196" y="322" type="line"/>
      <point x="196" y="300" type="line"/>
      <point x="353" y="379" type="line"/>
      <point x="322" y="472" type="line"/>
      <point x="313" y="476" type="line"/>
      <point x="196" y="417" type="line"/>
      <point x="196" y="439" type="line"/>
      <point x="-6" y="338" type="line"/>
      <point x="25" y="244" type="line"/>
    </contour>
    <component base="l" xOffset="30"/>
  </outline>
</glyph>
<glyph name="psilivaria" format="2">
  <advance width="458"/>
  <unicode hex="1FCD"/>
  <guideline x="272" y="771" angle="0"/>
  <guideline x="269" y="508" angle="0"/>
  <anchor x="226" y="472" name="_top"/>
  <anchor x="223" y="764" name="top"/>
  <outline>
    <contour>
      <point x="330" y="509" type="line"/>
      <point x="394" y="529" type="line"/>
      <point x="386" y="600"/>
      <point x="384" y="679"/>
      <point x="378" y="754" type="curve"/>
      <point x="366" y="764" type="line"/>
      <point x="249" y="735" type="line"/>
      <point x="241" y="721" type="line"/>
      <point x="309" y="518" type="line"/>
    </contour>
    <contour>
      <point x="115.37" y="503.466" type="line"/>
      <point x="186.112" y="557.423"/>
      <point x="225.19" y="623.892"/>
      <point x="220.127" y="681.72" type="curve" smooth="yes"/>
      <point x="216.06" y="728.172"/>
      <point x="185.047" y="755.07"/>
      <point x="141.439" y="751.252" type="curve" smooth="yes"/>
      <point x="115.843" y="749.011"/>
      <point x="73.113" y="724.254"/>
      <point x="52.353" y="699.51" type="curve"/>
      <point x="52.318" y="688.999" type="line"/>
      <point x="79.491" y="673.228"/>
      <point x="93.558" y="654.399"/>
      <point x="95.55" y="631.647" type="curve" smooth="yes"/>
      <point x="97.791" y="606.051"/>
      <point x="85.03" y="577.231"/>
      <point x="58.914" y="548.197" type="curve"/>
      <point x="62.553" y="528.455" type="line"/>
    </contour>
  </outline>
</glyph>
<glyph name="psilioxia" format="2">
  <advance width="458"/>
  <unicode hex="1FCE"/>
  <guideline x="269" y="508" angle="0"/>
  <anchor x="226" y="472" name="_top"/>
  <anchor x="271" y="765" name="top"/>
  <outline>
    <contour>
      <point x="337" y="508" type="line"/>
      <point x="359" y="515" type="line"/>
      <point x="449" y="710" type="line"/>
      <point x="441" y="724" type="line"/>
      <point x="329" y="765" type="line"/>
      <point x="315" y="757" type="line"/>
      <point x="304" y="683"/>
      <point x="291" y="605"/>
      <point x="276" y="535" type="curve"/>
    </contour>
    <contour>
      <point x="156.37" y="505.466" type="line"/>
      <point x="227.112" y="559.423"/>
      <point x="266.19" y="625.892"/>
      <point x="261.127" y="683.72" type="curve" smooth="yes"/>
      <point x="257.06" y="730.172"/>
      <point x="226.047" y="757.07"/>
      <point x="182.439" y="753.252" type="curve" smooth="yes"/>
      <point x="156.843" y="751.011"/>
      <point x="114.113" y="726.254"/>
      <point x="93.353" y="701.51" type="curve"/>
      <point x="93.318" y="690.999" type="line"/>
      <point x="120.491" y="675.228"/>
      <point x="134.558" y="656.399"/>
      <point x="136.55" y="633.647" type="curve" smooth="yes"/>
      <point x="138.791" y="608.051"/>
      <point x="126.03" y="579.231"/>
      <point x="99.914" y="550.197" type="curve"/>
      <point x="103.553" y="530.455" type="line"/>
    </contour>
  </outline>
</glyph>
<glyph name="T_h.liga" format="2">
  <advance width="1070"/>
  <anchor x="268" y="0" name="bottom_1"/>
  <anchor x="803" y="0" name="bottom_2"/>
  <anchor x="535" y="0" name="caret_1"/>
  <anchor x="0" y="0" name="center_1"/>
  <anchor x="0" y="0" name="center_2"/>
  <anchor x="268" y="472" name="top_1"/>
  <anchor x="803" y="472" name="top_2"/>
  <outline>
    <contour>
      <point x="90" y="-9" type="line"/>
      <point x="167" y="-4"/>
      <point x="253" y="0"/>
      <point x="291" y="0" type="curve" smooth="yes"/>
      <point x="330" y="0"/>
      <point x="418" y="-3"/>
      <point x="477" y="-6" type="curve"/>
      <point x="484" y="88" type="line"/>
      <point x="480" y="94" type="line"/>
      <point x="462" y="92"/>
      <point x="448" y="91"/>
      <point x="438" y="91" type="curve" smooth="yes"/>
      <point x="409" y="91"/>
      <point x="395" y="107"/>
      <point x="395" y="141" type="curve" smooth="yes"/>
      <point x="395" y="275"/>
      <point x="397" y="413"/>
      <point x="400" y="526" type="curve"/>
      <point x="517" y="526"/>
      <point x="547" y="518"/>
      <point x="610" y="470" type="curve"/>
      <point x="580" y="655" type="line"/>
      <point x="488" y="647" type="line"/>
      <point x="140" y="647" type="line"/>
      <point x="21" y="658" type="line"/>
      <point x="8" y="644" type="line"/>
      <point x="7" y="560"/>
      <point x="3" y="450"/>
      <point x="0" y="382" type="curve"/>
      <point x="124" y="390" type="line"/>
      <point x="133" y="506"/>
      <point x="144" y="526"/>
      <point x="197" y="526" type="curve"/>
      <point x="197" y="168" type="line" smooth="yes"/>
      <point x="197" y="105"/>
      <point x="179" y="90"/>
      <point x="98" y="83" type="curve"/>
    </contour>
    <contour>
      <point x="519" y="-5" type="line"/>
      <point x="548" y="-3"/>
      <point x="603" y="0"/>
      <point x="645" y="0" type="curve" smooth="yes"/>
      <point x="678" y="0"/>
      <point x="737" y="-2"/>
      <point x="773" y="-4" type="curve"/>
      <point x="784" y="78" type="line"/>
      <point x="781" y="85" type="line"/>
      <point x="778" y="85"/>
      <point x="771" y="84"/>
      <point x="767" y="84" type="curve" smooth="yes"/>
      <point x="750" y="84"/>
      <point x="744" y="92"/>
      <point x="744" y="116" type="curve" smooth="yes"/>
      <point x="744" y="188"/>
      <point x="744" y="253"/>
      <point x="745" y="313" type="curve"/>
      <point x="759" y="324"/>
      <point x="780" y="339"/>
      <point x="797" y="339" type="curve" smooth="yes"/>
      <point x="830" y="339"/>
      <point x="841" y="322"/>
      <point x="840" y="271" type="curve" smooth="yes"/>
      <point x="838" y="130" type="line" smooth="yes"/>
      <point x="838" y="99"/>
      <point x="827" y="87"/>
      <point x="803" y="84" type="curve"/>
      <point x="795" y="-3" type="line"/>
      <point x="832" y="-2"/>
      <point x="891" y="0"/>
      <point x="917" y="0" type="curve" smooth="yes"/>
      <point x="946" y="0"/>
      <point x="1008" y="-2"/>
      <point x="1047" y="-4" type="curve"/>
      <point x="1058" y="80" type="line"/>
      <point x="1056" y="84" type="line"/>
      <point x="1050" y="84"/>
      <point x="1038" y="83"/>
      <point x="1031" y="83" type="curve" smooth="yes"/>
      <point x="1011" y="83"/>
      <point x="1004" y="92"/>
      <point x="1004" y="120" type="curve" smooth="yes"/>
      <point x="1004" y="160"/>
      <point x="1026" y="310"/>
      <point x="1026" y="354" type="curve" smooth="yes"/>
      <point x="1026" y="439"/>
      <point x="968" y="484"/>
      <point x="860" y="484" type="curve" smooth="yes"/>
      <point x="839" y="484"/>
      <point x="786" y="431"/>
      <point x="746" y="389" type="curve"/>
      <point x="751" y="588"/>
      <point x="762" y="700"/>
      <point x="779" y="716" type="curve"/>
      <point x="770" y="742" type="line"/>
      <point x="726" y="736"/>
      <point x="639" y="723"/>
      <point x="563" y="713" type="curve"/>
      <point x="553" y="695" type="line"/>
      <point x="572" y="546" type="line"/>
      <point x="572" y="133" type="line" smooth="yes"/>
      <point x="572" y="97"/>
      <point x="563" y="85"/>
      <point x="530" y="81" type="curve"/>
    </contour>
  </outline>
</glyph>
<glyph name="c_h" format="2">
  <advance width="984"/>
  <anchor x="248" y="0" name="bottom"/>
  <anchor x="246" y="0" name="bottom_1"/>
  <anchor x="738" y="0" name="bottom_2"/>
  <anchor x="355" y="130" name="bottomright"/>
  <anchor x="492" y="0" name="caret_1"/>
  <anchor x="260" y="472" name="top"/>
  <anchor x="246" y="472" name="top_1"/>
  <anchor x="738" y="472" name="top_2"/>
  <outline>
    <contour>
      <point x="293" y="440" type="curve"/>
      <point x="410" y="462" type="line"/>
      <point x="388" y="503"/>
      <point x="371" y="555"/>
      <point x="371" y="581" type="curve" smooth="yes"/>
      <point x="371" y="630"/>
      <point x="442" y="634"/>
      <point x="631" y="597" type="curve"/>
      <point x="684" y="742" type="line"/>
      <point x="530" y="721" type="line"/>
      <point x="344" y="749"/>
      <point x="241" y="627"/>
    </contour>
    <contour>
      <point x="247" y="-12" type="curve" smooth="yes"/>
      <point x="320" y="-12"/>
      <point x="414" y="71"/>
      <point x="414" y="71" type="curve"/>
      <point x="392" y="146" type="line"/>
      <point x="382" y="151" type="line"/>
      <point x="382" y="151"/>
      <point x="338" y="125"/>
      <point x="284" y="125" type="curve" smooth="yes"/>
      <point x="228" y="125"/>
      <point x="203" y="171"/>
      <point x="203" y="273" type="curve" smooth="yes"/>
      <point x="203" y="335"/>
      <point x="222" y="366"/>
      <point x="260" y="366" type="curve" smooth="yes"/>
      <point x="289" y="366"/>
      <point x="300" y="350"/>
      <point x="300" y="308" type="curve" smooth="yes"/>
      <point x="300" y="272" type="line"/>
      <point x="392" y="277" type="line"/>
      <point x="399" y="367"/>
      <point x="415" y="451"/>
      <point x="415" y="451" type="curve"/>
      <point x="410" y="462" type="line"/>
      <point x="410" y="462"/>
      <point x="359" y="484"/>
      <point x="272" y="484" type="curve" smooth="yes"/>
      <point x="115" y="484"/>
      <point x="14" y="384"/>
      <point x="14" y="230" type="curve" smooth="yes"/>
      <point x="14" y="78"/>
      <point x="100" y="-12"/>
    </contour>
    <contour>
      <point x="433" y="-5" type="line"/>
      <point x="462" y="-3"/>
      <point x="517" y="0"/>
      <point x="559" y="0" type="curve" smooth="yes"/>
      <point x="592" y="0"/>
      <point x="651" y="-2"/>
      <point x="687" y="-4" type="curve"/>
      <point x="698" y="78" type="line"/>
      <point x="695" y="85" type="line"/>
      <point x="692" y="85"/>
      <point x="685" y="84"/>
      <point x="681" y="84" type="curve" smooth="yes"/>
      <point x="664" y="84"/>
      <point x="658" y="92"/>
      <point x="658" y="116" type="curve" smooth="yes"/>
      <point x="658" y="188"/>
      <point x="658" y="253"/>
      <point x="659" y="313" type="curve"/>
      <point x="673" y="324"/>
      <point x="694" y="339"/>
      <point x="711" y="339" type="curve" smooth="yes"/>
      <point x="744" y="339"/>
      <point x="755" y="322"/>
      <point x="754" y="271" type="curve" smooth="yes"/>
      <point x="752" y="130" type="line" smooth="yes"/>
      <point x="752" y="99"/>
      <point x="741" y="87"/>
      <point x="717" y="84" type="curve"/>
      <point x="709" y="-3" type="line"/>
      <point x="746" y="-2"/>
      <point x="805" y="0"/>
      <point x="831" y="0" type="curve" smooth="yes"/>
      <point x="860" y="0"/>
      <point x="922" y="-2"/>
      <point x="961" y="-4" type="curve"/>
      <point x="972" y="80" type="line"/>
      <point x="970" y="84" type="line"/>
      <point x="964" y="84"/>
      <point x="952" y="83"/>
      <point x="945" y="83" type="curve" smooth="yes"/>
      <point x="925" y="83"/>
      <point x="918" y="92"/>
      <point x="918" y="120" type="curve" smooth="yes"/>
      <point x="918" y="160"/>
      <point x="940" y="310"/>
      <point x="940" y="354" type="curve" smooth="yes"/>
      <point x="940" y="439"/>
      <point x="882" y="484"/>
      <point x="774" y="484" type="curve" smooth="yes"/>
      <point x="753" y="484"/>
      <point x="700" y="431"/>
      <point x="660" y="389" type="curve"/>
      <point x="665" y="588"/>
      <point x="676" y="700"/>
      <point x="693" y="716" type="curve"/>
      <point x="684" y="742" type="line"/>
      <point x="640" y="736"/>
      <point x="553" y="723"/>
      <point x="477" y="713" type="curve"/>
      <point x="467" y="695" type="line"/>
      <point x="486" y="546" type="line"/>
      <point x="486" y="133" type="line" smooth="yes"/>
      <point x="486" y="97"/>
      <point x="477" y="85"/>
      <point x="444" y="81" type="curve"/>
    </contour>
  </outline>
</glyph>
<glyph name="c_t" format="2">
  <advance width="781"/>
  <anchor x="248" y="0" name="bottom"/>
  <anchor x="197" y="0" name="bottom_1"/>
  <anchor x="592" y="0" name="bottom_2"/>
  <anchor x="355" y="130" name="bottomright"/>
  <anchor x="394.5" y="0" name="caret_1"/>
  <anchor x="260" y="472" name="top"/>
  <anchor x="197" y="472" name="top_1"/>
  <anchor x="592" y="472" name="top_2"/>
  <outline>
    <contour>
      <point x="294" y="440" type="curve"/>
      <point x="410" y="462" type="line"/>
      <point x="348" y="570"/>
      <point x="357" y="647"/>
      <point x="439" y="647" type="curve" smooth="yes"/>
      <point x="507" y="647"/>
      <point x="528" y="598"/>
      <point x="515" y="485" type="curve"/>
      <point x="490" y="471"/>
      <point x="466" y="459"/>
      <point x="441" y="447" type="curve"/>
      <point x="680" y="442" type="line"/>
      <point x="688" y="511" type="line" smooth="yes"/>
      <point x="703" y="644"/>
      <point x="623" y="740"/>
      <point x="503" y="740" type="curve" smooth="yes"/>
      <point x="333" y="740"/>
      <point x="241" y="603"/>
    </contour>
    <contour>
      <point x="247" y="-12" type="curve" smooth="yes"/>
      <point x="320" y="-12"/>
      <point x="414" y="71"/>
      <point x="414" y="71" type="curve"/>
      <point x="392" y="146" type="line"/>
      <point x="382" y="151" type="line"/>
      <point x="382" y="151"/>
      <point x="338" y="125"/>
      <point x="284" y="125" type="curve" smooth="yes"/>
      <point x="228" y="125"/>
      <point x="203" y="171"/>
      <point x="203" y="273" type="curve" smooth="yes"/>
      <point x="203" y="335"/>
      <point x="222" y="366"/>
      <point x="260" y="366" type="curve" smooth="yes"/>
      <point x="289" y="366"/>
      <point x="300" y="350"/>
      <point x="300" y="308" type="curve" smooth="yes"/>
      <point x="300" y="272" type="line"/>
      <point x="392" y="277" type="line"/>
      <point x="399" y="367"/>
      <point x="415" y="451"/>
      <point x="415" y="451" type="curve"/>
      <point x="410" y="462" type="line"/>
      <point x="410" y="462"/>
      <point x="359" y="484"/>
      <point x="272" y="484" type="curve" smooth="yes"/>
      <point x="115" y="484"/>
      <point x="14" y="384"/>
      <point x="14" y="230" type="curve" smooth="yes"/>
      <point x="14" y="78"/>
      <point x="100" y="-12"/>
    </contour>
    <contour>
      <point x="632" y="-12" type="curve" smooth="yes"/>
      <point x="681" y="-12"/>
      <point x="707" y="10"/>
      <point x="784" y="90" type="curve"/>
      <point x="768" y="130" type="line"/>
      <point x="756" y="126"/>
      <point x="736" y="121"/>
      <point x="718" y="121" type="curve" smooth="yes"/>
      <point x="681" y="121"/>
      <point x="671" y="143"/>
      <point x="671" y="214" type="curve" smooth="yes"/>
      <point x="671" y="246"/>
      <point x="673" y="314"/>
      <point x="676" y="365" type="curve"/>
      <point x="762" y="362" type="line"/>
      <point x="773" y="447" type="line"/>
      <point x="768" y="454" type="line"/>
      <point x="441" y="447" type="line"/>
      <point x="433" y="376" type="line"/>
      <point x="449" y="367" type="line"/>
      <point x="491" y="367"/>
      <point x="500" y="357"/>
      <point x="500" y="309" type="curve" smooth="yes"/>
      <point x="500" y="114" type="line" smooth="yes"/>
      <point x="500" y="32"/>
      <point x="563" y="-12"/>
    </contour>
  </outline>
</glyph>
<glyph name="lcaron.sc" format="2">
  <advance width="495"/>
  <anchor x="251" y="0" name="bottom"/>
  <anchor x="241" y="252" name="center"/>
  <anchor x="241" y="503" name="top"/>
  <anchor x="462" y="503" name="topright"/>
  <outline>
    <contour>
      <point x="391" y="301" type="line"/>
      <point x="457" y="322" type="line"/>
      <point x="480" y="410"/>
      <point x="493" y="495"/>
      <point x="493" y="495" type="curve"/>
      <point x="485" y="505" type="line"/>
      <point x="367" y="494" type="line"/>
      <point x="367" y="494"/>
      <point x="376" y="401"/>
      <point x="375" y="306" type="curve"/>
    </contour>
    <component base="l.sc"/>
  </outline>
</glyph>
<glyph name="lslash.sc" format="2">
  <advance width="500"/>
  <anchor x="275" y="0" name="bottom"/>
  <anchor x="265" y="252" name="center"/>
  <anchor x="265" y="503" name="top"/>
  <anchor x="486" y="503" name="topright"/>
  <outline>
    <contour>
      <point x="52" y="156" type="line"/>
      <point x="191" y="222" type="line"/>
      <point x="191" y="202" type="line"/>
      <point x="373" y="288" type="line"/>
      <point x="345" y="369" type="line"/>
      <point x="337" y="372" type="line"/>
      <point x="191" y="304" type="line"/>
      <point x="191" y="323" type="line"/>
      <point x="15" y="240" type="line"/>
      <point x="44" y="158" type="line"/>
    </contour>
    <component base="l.sc" xOffset="24"/>
  </outline>
</glyph>
<glyph name="psilioxia.case" format="2">
  <advance width="458"/>
  <guideline x="269" y="508" angle="0"/>
  <anchor x="226" y="472" name="_top"/>
  <anchor x="336" y="723" name="_topleft"/>
  <anchor x="241" y="765" name="top"/>
  <outline>
    <contour>
      <point x="318" y="508" type="line"/>
      <point x="340" y="515" type="line"/>
      <point x="430" y="710" type="line"/>
      <point x="422" y="724" type="line"/>
      <point x="310" y="765" type="line"/>
      <point x="296" y="757" type="line"/>
      <point x="285" y="683"/>
      <point x="272" y="605"/>
      <point x="257" y="535" type="curve"/>
    </contour>
    <contour>
      <point x="114.37" y="505.466" type="line"/>
      <point x="185.112" y="559.423"/>
      <point x="224.19" y="625.892"/>
      <point x="219.127" y="683.72" type="curve" smooth="yes"/>
      <point x="215.06" y="730.172"/>
      <point x="184.047" y="757.07"/>
      <point x="140.439" y="753.252" type="curve" smooth="yes"/>
      <point x="114.843" y="751.011"/>
      <point x="72.113" y="726.254"/>
      <point x="51.353" y="701.51" type="curve"/>
      <point x="51.318" y="690.999" type="line"/>
      <point x="78.491" y="675.228"/>
      <point x="92.558" y="656.399"/>
      <point x="94.55" y="633.647" type="curve" smooth="yes"/>
      <point x="96.791" y="608.051"/>
      <point x="84.03" y="579.231"/>
      <point x="57.914" y="550.197" type="curve"/>
      <point x="61.553" y="530.455" type="line"/>
    </contour>
  </outline>
</glyph>
<glyph name="psilivaria.case" format="2">
  <advance width="458"/>
  <guideline x="272" y="771" angle="0"/>
  <guideline x="269" y="508" angle="0"/>
  <anchor x="226" y="472" name="_top"/>
  <anchor x="314" y="723" name="_topleft"/>
  <anchor x="222" y="764" name="top"/>
  <outline>
    <contour>
      <point x="330" y="509" type="line"/>
      <point x="394" y="529" type="line"/>
      <point x="386" y="600"/>
      <point x="384" y="679"/>
      <point x="378" y="754" type="curve"/>
      <point x="366" y="764" type="line"/>
      <point x="249" y="735" type="line"/>
      <point x="241" y="721" type="line"/>
      <point x="309" y="518" type="line"/>
    </contour>
    <contour>
      <point x="112.37" y="503.466" type="line"/>
      <point x="183.112" y="557.423"/>
      <point x="222.19" y="623.892"/>
      <point x="217.127" y="681.72" type="curve" smooth="yes"/>
      <point x="213.06" y="728.172"/>
      <point x="182.047" y="755.07"/>
      <point x="138.439" y="751.252" type="curve" smooth="yes"/>
      <point x="112.843" y="749.011"/>
      <point x="70.113" y="724.254"/>
      <point x="49.353" y="699.51" type="curve"/>
      <point x="49.318" y="688.999" type="line"/>
      <point x="76.491" y="673.228"/>
      <point x="90.558" y="654.399"/>
      <point x="92.55" y="631.647" type="curve" smooth="yes"/>
      <point x="94.791" y="606.051"/>
      <point x="82.03" y="577.231"/>
      <point x="55.914" y="548.197" type="curve"/>
      <point x="59.553" y="528.455" type="line"/>
    </contour>
  </outline>
</glyph>
<glyph name="s_t" format="2">
  <advance width="759"/>
  <anchor x="208" y="0" name="bottom"/>
  <anchor x="384.5" y="0" name="caret_1"/>
  <anchor x="208" y="472" name="top"/>
  <outline>
    <contour>
      <point x="263" y="442" type="curve"/>
      <point x="379" y="464" type="line"/>
      <point x="317" y="572"/>
      <point x="340" y="647"/>
      <point x="422" y="647" type="curve" smooth="yes"/>
      <point x="490" y="647"/>
      <point x="506" y="598"/>
      <point x="493" y="485" type="curve"/>
      <point x="468" y="471"/>
      <point x="444" y="459"/>
      <point x="419" y="447" type="curve"/>
      <point x="658" y="442" type="line"/>
      <point x="666" y="511" type="line" smooth="yes"/>
      <point x="681" y="644"/>
      <point x="606" y="740"/>
      <point x="486" y="740" type="curve" smooth="yes"/>
      <point x="316" y="740"/>
      <point x="210" y="605"/>
    </contour>
    <contour>
      <point x="168" y="-12" type="curve" smooth="yes"/>
      <point x="303" y="-12"/>
      <point x="399" y="53"/>
      <point x="399" y="145" type="curve" smooth="yes"/>
      <point x="399" y="216"/>
      <point x="368" y="250"/>
      <point x="243" y="302" type="curve" smooth="yes"/>
      <point x="210" y="316"/>
      <point x="196" y="329"/>
      <point x="196" y="346" type="curve" smooth="yes"/>
      <point x="196" y="365"/>
      <point x="211" y="376"/>
      <point x="235" y="376" type="curve" smooth="yes"/>
      <point x="271" y="376"/>
      <point x="289" y="355"/>
      <point x="290" y="309" type="curve" smooth="yes"/>
      <point x="290" y="308"/>
      <point x="290" y="305"/>
      <point x="290" y="305" type="curve"/>
      <point x="370" y="309" type="line"/>
      <point x="376" y="377"/>
      <point x="388" y="447"/>
      <point x="388" y="447" type="curve"/>
      <point x="379" y="464" type="line"/>
      <point x="379" y="464"/>
      <point x="331" y="484"/>
      <point x="254" y="484" type="curve" smooth="yes"/>
      <point x="112" y="484"/>
      <point x="20" y="419"/>
      <point x="20" y="318" type="curve" smooth="yes"/>
      <point x="20" y="252"/>
      <point x="56" y="209"/>
      <point x="140" y="175" type="curve" smooth="yes"/>
      <point x="207" y="148"/>
      <point x="221" y="138"/>
      <point x="221" y="118" type="curve" smooth="yes"/>
      <point x="221" y="102"/>
      <point x="205" y="92"/>
      <point x="181" y="92" type="curve" smooth="yes"/>
      <point x="138" y="92"/>
      <point x="104" y="127"/>
      <point x="103" y="171" type="curve"/>
      <point x="23" y="165" type="line"/>
      <point x="19" y="121"/>
      <point x="13" y="71"/>
      <point x="8" y="36" type="curve"/>
      <point x="18" y="22" type="line"/>
      <point x="18" y="22"/>
      <point x="79" y="-12"/>
    </contour>
    <contour>
      <point x="610" y="-12" type="curve" smooth="yes"/>
      <point x="659" y="-12"/>
      <point x="685" y="10"/>
      <point x="762" y="90" type="curve"/>
      <point x="746" y="130" type="line"/>
      <point x="734" y="126"/>
      <point x="714" y="121"/>
      <point x="696" y="121" type="curve" smooth="yes"/>
      <point x="659" y="121"/>
      <point x="649" y="143"/>
      <point x="649" y="214" type="curve" smooth="yes"/>
      <point x="649" y="246"/>
      <point x="651" y="314"/>
      <point x="654" y="365" type="curve"/>
      <point x="740" y="362" type="line"/>
      <point x="751" y="447" type="line"/>
      <point x="746" y="454" type="line"/>
      <point x="419" y="447" type="line"/>
      <point x="411" y="376" type="line"/>
      <point x="427" y="367" type="line"/>
      <point x="469" y="367"/>
      <point x="478" y="357"/>
      <point x="478" y="309" type="curve" smooth="yes"/>
      <point x="478" y="114" type="line" smooth="yes"/>
      <point x="478" y="32"/>
      <point x="541" y="-12"/>
    </contour>
  </outline>
</glyph>
<glyph name="tbar.sc" format="2">
  <advance width="511"/>
  <anchor x="256" y="0" name="bottom"/>
  <anchor x="256" y="252" name="center"/>
  <anchor x="256" y="503" name="top"/>
  <outline>
    <contour>
      <point x="77" y="166" type="line"/>
      <point x="77" y="166"/>
      <point x="181" y="167"/>
      <point x="257" y="167" type="curve" smooth="yes"/>
      <point x="434" y="167" type="line"/>
      <point x="439" y="222" type="line"/>
      <point x="424" y="237" type="line"/>
      <point x="424" y="237"/>
      <point x="339" y="233"/>
      <point x="283" y="233" type="curve" smooth="yes"/>
      <point x="200" y="233"/>
      <point x="74" y="234"/>
      <point x="74" y="234" type="curve"/>
      <point x="66" y="176" type="line"/>
    </contour>
    <component base="t.sc"/>
  </outline>
</glyph>
<glyph name="tildecomb_acutecomb.case" format="2">
  <anchor x="199" y="647" name="_top"/>
  <anchor x="199" y="1055" name="top"/>
  <outline>
    <contour>
      <point x="71.48" y="675.097" type="line"/>
      <point x="86.294" y="675.097" type="line"/>
      <point x="86.294" y="675.097"/>
      <point x="125.182" y="728.8"/>
      <point x="148.33" y="728.8" type="curve" smooth="yes"/>
      <point x="176.107" y="728.8"/>
      <point x="258.512" y="697.319"/>
      <point x="290.918" y="697.319" type="curve"/>
      <point x="306.659" y="701.023" type="line"/>
      <point x="381.656" y="807.501" type="line"/>
      <point x="381.656" y="822.316" type="line"/>
      <point x="327.028" y="872.314" type="line"/>
      <point x="312.214" y="872.314" type="line"/>
      <point x="312.214" y="872.314"/>
      <point x="272.4" y="818.612"/>
      <point x="250.179" y="818.612" type="curve" smooth="yes"/>
      <point x="222.402" y="818.612"/>
      <point x="139.996" y="850.093"/>
      <point x="107.59" y="850.093" type="curve"/>
      <point x="91.85" y="846.389" type="line"/>
      <point x="16.852" y="739.91" type="line"/>
      <point x="16.852" y="725.096" type="line"/>
    </contour>
    <contour>
      <point x="87" y="871" type="line"/>
      <point x="211" y="902"/>
      <point x="341" y="926"/>
      <point x="341" y="926" type="curve"/>
      <point x="348" y="942" type="line"/>
      <point x="312" y="1050" type="line"/>
      <point x="296" y="1055" type="line"/>
      <point x="296" y="1055"/>
      <point x="170" y="1001"/>
      <point x="47" y="955" type="curve"/>
      <point x="68" y="884" type="line"/>
    </contour>
  </outline>
</glyph>
<glyph name="tildecomb_acutecomb" format="2">
  <anchor x="199" y="472" name="_top"/>
  <anchor x="199" y="883" name="top"/>
  <outline>
    <contour>
      <point x="71.48" y="503.098" type="line"/>
      <point x="86.294" y="503.098" type="line"/>
      <point x="86.294" y="503.098"/>
      <point x="125.182" y="556.8"/>
      <point x="148.33" y="556.8" type="curve" smooth="yes"/>
      <point x="176.107" y="556.8"/>
      <point x="258.512" y="525.319"/>
      <point x="290.918" y="525.319" type="curve"/>
      <point x="306.659" y="529.023" type="line"/>
      <point x="381.656" y="635.501" type="line"/>
      <point x="381.656" y="650.316" type="line"/>
      <point x="327.028" y="700.314" type="line"/>
      <point x="312.214" y="700.314" type="line"/>
      <point x="312.214" y="700.314"/>
      <point x="272.4" y="646.612"/>
      <point x="250.179" y="646.612" type="curve" smooth="yes"/>
      <point x="222.402" y="646.612"/>
      <point x="139.996" y="678.093"/>
      <point x="107.59" y="678.093" type="curve"/>
      <point x="91.85" y="674.389" type="line"/>
      <point x="16.852" y="567.91" type="line"/>
      <point x="16.852" y="553.096" type="line"/>
    </contour>
    <contour>
      <point x="87" y="699" type="line"/>
      <point x="211" y="730"/>
      <point x="341" y="754"/>
      <point x="341" y="754" type="curve"/>
      <point x="348" y="770" type="line"/>
      <point x="312" y="878" type="line"/>
      <point x="296" y="883" type="line"/>
      <point x="296" y="883"/>
      <point x="170" y="829"/>
      <point x="47" y="783" type="curve"/>
      <point x="68" y="712" type="line"/>
    </contour>
  </outline>
</glyph>
<glyph name="tildecomb_macroncomb" format="2">
  <anchor x="199" y="472" name="_top"/>
  <anchor x="199" y="869" name="top"/>
  <outline>
    <contour>
      <point x="71.48" y="503.098" type="line"/>
      <point x="86.294" y="503.098" type="line"/>
      <point x="86.294" y="503.098"/>
      <point x="125.182" y="556.8"/>
      <point x="148.33" y="556.8" type="curve" smooth="yes"/>
      <point x="176.107" y="556.8"/>
      <point x="258.512" y="525.319"/>
      <point x="290.918" y="525.319" type="curve"/>
      <point x="306.659" y="529.023" type="line"/>
      <point x="381.656" y="635.501" type="line"/>
      <point x="381.656" y="650.316" type="line"/>
      <point x="327.028" y="700.314" type="line"/>
      <point x="312.214" y="700.314" type="line"/>
      <point x="312.214" y="700.314"/>
      <point x="272.4" y="646.612"/>
      <point x="250.179" y="646.612" type="curve" smooth="yes"/>
      <point x="222.402" y="646.612"/>
      <point x="139.996" y="678.093"/>
      <point x="107.59" y="678.093" type="curve"/>
      <point x="91.85" y="674.389" type="line"/>
      <point x="16.852" y="567.91" type="line"/>
      <point x="16.852" y="553.096" type="line"/>
    </contour>
    <contour>
      <point x="61" y="724" type="line"/>
      <point x="61" y="724"/>
      <point x="136" y="725"/>
      <point x="195" y="725" type="curve" smooth="yes"/>
      <point x="335" y="726" type="line"/>
      <point x="353" y="835" type="line"/>
      <point x="342" y="853" type="line"/>
      <point x="342" y="853"/>
      <point x="268" y="847"/>
      <point x="218" y="847" type="curve" smooth="yes"/>
      <point x="159" y="847"/>
      <point x="64" y="848"/>
      <point x="64" y="848" type="curve"/>
      <point x="45" y="739" type="line"/>
    </contour>
  </outline>
</glyph>
